<?xml version="1.0" encoding="utf-8"?>
<!-- Generator: Adobe Illustrator 18.1.1, SVG Export Plug-In . SVG Version: 6.00 Build 0)  -->
<svg version="1.1" id="Layer_1" xmlns="http://www.w3.org/2000/svg" xmlns:xlink="http://www.w3.org/1999/xlink" x="0px" y="0px"
	 viewBox="0 0 200 200" enable-background="new 0 0 200 200" xml:space="preserve">
<g>
	<circle fill="#A00000" cx="100.4" cy="99.7" r="98.1"/>
	<g>
		<path fill="#FFFFCC" d="M111.7,117.6c-2-3.4-4.9-6.7-8.9-9.8c-1.9-1.5-4-2.8-5.7-4.6c-1.7-1.8-2.9-4.2-2.6-6.6
			c0.3-2.9,2.6-5.2,5-7c4.8-3.7,8.2-8.1,9.8-14.1c2.6-10.1-1.7-19.9-9.2-26h8.7l8.9-5.4H89.1c-2.3-0.5-4.6-0.8-7-0.6
			c-14.9,0.8-28.8,15-28.5,30.1c0.1,8.1,5.3,14.7,12.2,18.5c3.4,1.9,7.3,3.1,11.2,3.6c1.8,0.2,4-0.3,4.8,1.2
			c0.6,1.2-0.8,5.1-0.3,6.8c0.7,2.6,2.1,4.9,3.8,7c-9.6,1.7-21.3,1.5-29.2,8.4c-8.2,7.2-11.8,12.6-9,22.9
			c2.9,10.4,18.3,14.7,23.3,15.1c5,0.4,28.7,1.8,38-11.5C115.4,135.7,116.6,126.1,111.7,117.6z M68.6,78.6c0,0-9.5-23.5,5.8-28.6
			c15.3-5.1,20.8,15,20.8,15s7.5,19.4-6.1,25.5C77.5,95.6,68.6,78.6,68.6,78.6z M101.3,144.6c-3.8,4.1-10.4,6.5-16,6.5
			c-3.2,0-26.2-0.4-26.5-18.3c-0.5-24.3,44.5-21.9,46.2,1.8C105.3,137.9,104.2,141.4,101.3,144.6z"/>
		<polygon fill="#FFFFCC" points="164.1,90 164.1,99.5 148.7,99.5 148.7,114.9 139.1,114.9 139.1,99.5 123.7,99.5 123.7,90 
			139.1,90 139.1,74.6 148.7,74.6 148.7,90 		"/>
	</g>
</g>
</svg>
