<svg xmlns="http://www.w3.org/2000/svg" viewBox="0 0 200 200" enable-background="new 0 0 200 200"><circle fill="#A00000" cx="100.4" cy="99.7" r="98.1"/><path d="M111.7 117.6c-2-3.4-4.9-6.7-8.9-9.8-1.9-1.5-4-2.8-5.7-4.6-1.7-1.8-2.9-4.2-2.6-6.6.3-2.9 2.6-5.2 5-7 4.8-3.7 8.2-8.1 9.8-14.1 2.6-10.1-1.7-19.9-9.2-26h8.7l8.9-5.4h-28.6c-2.3-.5-4.6-.8-7-.6-14.9.8-28.8 15-28.5 30.1.1 8.1 5.3 14.7 12.2 18.5 3.4 1.9 7.3 3.1 11.2 3.6 1.8.2 4-.3 4.8 1.2.6 1.2-.8 5.1-.3 6.8.7 2.6 2.1 4.9 3.8 7-9.6 1.7-21.3 1.5-29.2 8.4-8.2 7.2-11.8 12.6-9 22.9 2.9 10.4 18.3 14.7 23.3 15.1 5 .4 28.7 1.8 38-11.5 7-9.9 8.2-19.5 3.3-28zm-43.1-39s-9.5-23.5 5.8-28.6c15.3-5.1 20.8 15 20.8 15s7.5 19.4-6.1 25.5c-11.6 5.1-20.5-11.9-20.5-11.9zm32.7 66c-3.8 4.1-10.4 6.5-16 6.5-3.2 0-26.2-.4-26.5-18.3-.5-24.3 44.5-21.9 46.2 1.8.3 3.3-.8 6.8-3.7 10zm62.8-54.6v9.5h-15.4v15.4h-9.6v-15.4h-15.4v-9.5h15.4v-15.4h9.6v15.4z" fill="#ffc"/></svg>