<svg xmlns="http://www.w3.org/2000/svg" viewBox="0 0 200 200" enable-background="new 0 0 200 200"><circle fill="#9F1C20" cx="100.1" cy="99.7" r="97.3"/><path d="M79.5 93.2c0-4 1.1-7.8 3.2-10.9h4.9c-2.5 2.9-4.1 6.8-4.1 10.9 0 9.3 7.5 16.8 16.8 16.8s16.8-7.5 16.8-16.8c0-4.1-1.5-8-4-10.9h4.8c2 3.2 3.2 6.9 3.2 10.9 0 11.5-9.3 20.8-20.8 20.8s-20.8-9.3-20.8-20.8zm70.8-10.9v56.3c0 5.8-4.7 10.5-10.5 10.5h-79c-5.8 0-10.5-4.7-10.5-10.5v-56.3h28.5c-1.7 3.3-2.7 7-2.7 10.9 0 13.1 10.6 23.7 23.7 23.7s23.7-10.6 23.7-23.7c0-4-.9-7.7-2.7-10.9h29.5zm-50-9.9c6.1 0 11.5 2.6 15.3 6.8h-6c-2.7-1.8-5.8-2.8-9.3-2.8s-6.6 1-9.3 2.8h-6c3.7-4.2 9.2-6.8 15.3-6.8zm39.5-23.3h-79c-5.8 0-10.5 4.7-10.5 10.5v19.5h30.5c4.3-5.8 11.2-9.6 19-9.6s14.8 3.8 19 9.6h31.5v-19.4c0-5.8-4.7-10.6-10.5-10.6zm-81.1 25.8h-3.4v-13.4c0-1.6.5-3.2 1.5-4.5l1.9-2.5v20.4zm5.8 0h-3.5v-20.5h3.4v20.5zm5.7 0h-3.5v-20.5h3.5v20.5zm5.8 0h-3.4v-20.5h3.4v20.5zm68-6.5c0 2.9-2.4 5.3-5.4 5.3h-10.7c-2.9 0-5.3-2.4-5.3-5.3v-7.7c0-2.9 2.4-5.3 5.3-5.3h10.7c3 0 5.4 2.4 5.4 5.3v7.7zm-26.1 13.9c-.6-1.1-1.4-2.1-2.3-3.1-3.8-4.1-9.2-6.8-15.3-6.8-6 0-11.5 2.6-15.3 6.8-.9.9-1.7 2-2.3 3.1-2 3.2-3.2 6.9-3.2 10.9 0 11.5 9.3 20.8 20.8 20.8s20.8-9.3 20.8-20.8c-.1-4-1.2-7.8-3.2-10.9zm-17.6 27.7c-9.3 0-16.8-7.5-16.8-16.8 0-4.1 1.5-8 4.1-10.9 1-1.2 2.2-2.2 3.5-3.1 2.6-1.8 5.8-2.8 9.3-2.8s6.6 1 9.3 2.8c1.3.8 2.5 1.9 3.5 3.1 2.5 2.9 4 6.8 4 10.9-.1 9.3-7.6 16.8-16.9 16.8zm17.6-27.7c-.6-1.1-1.4-2.1-2.3-3.1-3.8-4.1-9.2-6.8-15.3-6.8-6 0-11.5 2.6-15.3 6.8-.9.9-1.7 2-2.3 3.1-2 3.2-3.2 6.9-3.2 10.9 0 11.5 9.3 20.8 20.8 20.8s20.8-9.3 20.8-20.8c-.1-4-1.2-7.8-3.2-10.9zm-17.6 27.7c-9.3 0-16.8-7.5-16.8-16.8 0-4.1 1.5-8 4.1-10.9 1-1.2 2.2-2.2 3.5-3.1 2.6-1.8 5.8-2.8 9.3-2.8s6.6 1 9.3 2.8c1.3.8 2.5 1.9 3.5 3.1 2.5 2.9 4 6.8 4 10.9-.1 9.3-7.6 16.8-16.9 16.8z" fill="#FCF9CE"/></svg>