<?xml version="1.0" encoding="utf-8"?>
<!-- Generator: Adobe Illustrator 18.1.1, SVG Export Plug-In . SVG Version: 6.00 Build 0)  -->
<svg version="1.1" id="Layer_1" xmlns="http://www.w3.org/2000/svg" xmlns:xlink="http://www.w3.org/1999/xlink" x="0px" y="0px"
	 viewBox="0 0 200 200" enable-background="new 0 0 200 200" xml:space="preserve">
<g>
	<circle fill="#A00000" cx="99.6" cy="100.3" r="98.3"/>
	<g>
		<rect x="41.3" y="80.5" fill="#FFFFCC" width="26.7" height="77.6"/>
		<path fill="#FFFFCC" d="M159.3,107.2v50.9h-26.7V115c0-5-2.3-9.9-6.6-12.6c-1.6-1-3.3-1.7-5.2-1.7c-4.1,0-6.7,0.3-9.2,2.3
			c-2.6,2.1-3.9,5.4-3.9,8.7v46.4H81.1V80.5h26.7v9.4c3.9-4.7,9.5-8.4,17-9.8c5.3-1,10.8-0.4,15.9,1.4c4.2,1.5,7.7,3.7,10.8,6.8
			C156.3,93.2,159.3,99.8,159.3,107.2z"/>
		<circle fill="#FFFFCC" cx="54.4" cy="57.7" r="15"/>
	</g>
</g>
</svg>
