<svg xmlns="http://www.w3.org/2000/svg" viewBox="0 0 200 200" enable-background="new 0 0 200 200"><circle fill="#9F1C20" cx="100.3" cy="100.4" r="97.3"/><path fill="#FCF9CE" d="M150 73.2s4.8 36.6-25.5 57.5-59.1 18.3-80.5 3.6c0 0 22 2.1 36.1-9.9 0 0-17-.7-22.1-17 0 0 5.3 1.3 10.3-.3 0 0-19.3-3.4-18.9-24.4 0 0 6.1 3.2 10.6 3 0 0-10.9-7.1-10.9-19.7 0 0-.8-6.6 3.7-12.5 0 0 20.1 24.2 49.6 25.4 0 0-2.6-16.7 8.2-24.2l22.9-4.8s7.2 2.2 10.3 6.9c0 0 10.4-1.9 14.8-5.5 0 0 2.1 4.2-8.8 12.8 0 0 7.1-1.1 12.2-3.4-.3 0-3.4 7.8-12 12.5z"/></svg>