<?xml version="1.0" encoding="utf-8"?>
<!-- Generator: Adobe Illustrator 18.1.1, SVG Export Plug-In . SVG Version: 6.00 Build 0)  -->
<svg version="1.1" id="Layer_1" xmlns="http://www.w3.org/2000/svg" xmlns:xlink="http://www.w3.org/1999/xlink" x="0px" y="0px"
	 viewBox="0 0 200 200" enable-background="new 0 0 200 200" xml:space="preserve">
<g>
	<circle fill="#9F1C20" cx="100.3" cy="100.4" r="97.3"/>
	<path fill="#FCF9CE" d="M150,73.2c0,0,4.8,36.6-25.5,57.5S65.4,149,44,134.3c0,0,22,2.1,36.1-9.9c0,0-17-0.7-22.1-17
		c0,0,5.3,1.3,10.3-0.3c0,0-19.3-3.4-18.9-24.4c0,0,6.1,3.2,10.6,3c0,0-10.9-7.1-10.9-19.7c0,0-0.8-6.6,3.7-12.5
		c0,0,20.1,24.2,49.6,25.4c0,0-2.6-16.7,8.2-24.2s22.9-4.8,22.9-4.8s7.2,2.2,10.3,6.9c0,0,10.4-1.9,14.8-5.5c0,0,2.1,4.2-8.8,12.8
		c0,0,7.1-1.1,12.2-3.4C161.7,60.7,158.6,68.5,150,73.2z"/>
</g>
</svg>
